# xmcd
#
# Track frame offsets: 
#        150
#        17781
#        28524
#        48950
#        63882
#        78224
#        96530
#        110296
#        132131
#        144940
#        160392
#        173335
#
# Disc length: 2547 seconds
#
# Revision: 0
# Processed by: cddbd v1.4PL0 Copyright (c) Steve Scherf et al.
# Submitted via: ExactAudioCopy v0.95a1
#
DISCID=8c09f10c
DTITLE=Frontline - Mansions of Kings
DYEAR=2002
DGENRE=Bluegrass
TTITLE0=What Kind of Love is This
TTITLE1=Twisted
TTITLE2=One Day I'll Walk
TTITLE3=Train Going South
TTITLE4=I Know You Still
TTITLE5=Lost Soldier Son
TTITLE6=Sweet Dreamin' Man
TTITLE7=I've Just Seen the Rock of Ages
TTITLE8=Dead End
TTITLE9=When Life is Good
TTITLE10=Carry Me Back to the Bluegrass
TTITLE11=Mansions of Kings
EXTD=
EXTT0=
EXTT1=
EXTT2=
EXTT3=
EXTT4=
EXTT5=
EXTT6=
EXTT7=
EXTT8=
EXTT9=
EXTT10=
EXTT11=
PLAYORDER=
